
<svg version="1.1" class="drag" xmlns="http://www.w3.org/2000/svg" xmlns:xlink="http://www.w3.org/1999/xlink" x="0px" y="0px"
	 viewBox="0 0 512 512" style="enable-background:new 0 0 512 512;" xml:space="preserve">

<g>
	<g>
		<path class="drag" d="M458.7,192H352c-5.9,0-10.7,4.8-10.7,10.7s4.8,10.7,10.7,10.7h106.7c17.6,0,32,14.4,32,32v213.3
			c0,17.6-14.4,32-32,32H245.3c-17.6,0-32-14.4-32-32v-85.3c0-5.9-4.8-10.7-10.7-10.7s-10.7,4.8-10.7,10.7v85.3
			c0,29.4,23.9,53.3,53.3,53.3h213.3c29.4,0,53.3-23.9,53.3-53.3V245.3C512,215.9,488.1,192,458.7,192z"/>
	</g>
</g>
<g>
	<g>
		<path class="drag" d="M160,298.7h-10.7c-5.9,0-10.7,4.8-10.7,10.7s4.8,10.7,10.7,10.7H160c5.9,0,10.7-4.8,10.7-10.7
			S165.9,298.7,160,298.7z"/>
	</g>
</g>
<g>
	<g>
		<g>
			<path class="drag" d="M62.7,0h-9.4c-5.1,0-10.1,0.7-15,2.1c-5.7,1.7-8.9,7.6-7.3,13.2C32.5,20,36.7,23,41.3,23c1,0,2-0.1,3-0.4
				c2.9-0.9,5.9-1.3,9-1.3h9.4c5.9,0,10.7-4.8,10.7-10.7S68.6,0,62.7,0z"/>
			<path class="drag" d="M21.3,257.2v-21.6c0-5.9-4.8-10.7-10.7-10.7S0,229.8,0,235.6v21.6c0,5.9,4.8,10.7,10.7,10.7
				S21.3,263.1,21.3,257.2z"/>
			<path class="drag" d="M10.7,203.2c5.9,0,10.7-4.8,10.7-10.7v-21.6c0-5.9-4.8-10.7-10.7-10.7S0,165.1,0,170.9v21.6
				C0,198.4,4.8,203.2,10.7,203.2z"/>
			<path class="drag" d="M10.7,73.8c5.9,0,10.7-4.8,10.7-10.7v-9.8c0-3,0.4-5.9,1.2-8.7c1.6-5.7-1.7-11.6-7.4-13.2
				C9.5,29.8,3.6,33.1,2,38.8c-1.3,4.7-2,9.6-2,14.5v9.8C0,69,4.8,73.8,10.7,73.8z"/>
			<path class="drag" d="M10.7,138.5c5.9,0,10.7-4.8,10.7-10.7v-21.6c0-5.9-4.8-10.7-10.7-10.7S0,100.4,0,106.3v21.6
				C0,133.7,4.8,138.5,10.7,138.5z"/>
			<path class="drag" d="M44.6,297.5c-5.2-1.5-9.9-4.3-13.8-8.1c-4.2-4.2-10.9-4.1-15.1,0c-4.2,4.2-4.1,10.9,0,15.1
				c6.4,6.4,14.4,11,23,13.5c1,0.3,2,0.4,2.9,0.4c4.6,0,8.9-3.1,10.2-7.7C53.5,305,50.3,299.1,44.6,297.5z"/>
			<path class="drag" d="M307.6,52c1,0,2-0.1,3-0.4c5.7-1.7,8.9-7.6,7.3-13.2c-2.5-8.6-7.3-16.5-13.7-22.9
				c-4.2-4.1-10.9-4.1-15.1,0.1c-4.1,4.2-4.1,10.9,0.1,15.1c3.8,3.8,6.7,8.6,8.2,13.7C298.7,48.9,303,52,307.6,52z"/>
			<path class="drag" d="M256.8,0h-21.6c-5.9,0-10.7,4.8-10.7,10.7s4.8,10.7,10.7,10.7h21.6c5.9,0,10.7-4.8,10.7-10.7
				S262.7,0,256.8,0z"/>
			<path class="drag" d="M106.2,298.7H84.7c-5.9,0-10.7,4.8-10.7,10.7S78.8,320,84.7,320h21.6c5.9,0,10.7-4.8,10.7-10.7
				S112.1,298.7,106.2,298.7z"/>
			<path class="drag" d="M309.3,73.6c-5.9,0-10.7,4.8-10.7,10.7v21.6c0,5.9,4.8,10.7,10.7,10.7s10.7-4.8,10.7-10.7V84.3
				C320,78.4,315.2,73.6,309.3,73.6z"/>
			<path class="drag" d="M192.1,0h-21.6c-5.9,0-10.7,4.8-10.7,10.7s4.8,10.7,10.7,10.7h21.5c5.9,0,10.7-4.8,10.7-10.7S198,0,192.1,0z
				"/>
			<path class="drag" d="M127.4,0h-21.6C100,0,95.2,4.8,95.2,10.7s4.8,10.7,10.7,10.7h21.6c5.9,0,10.7-4.8,10.7-10.7S133.3,0,127.4,0
				z"/>
		</g>
	</g>
</g>
<g>
	<g>
		<path class="drag" d="M309.3,138.7c-5.9,0-10.7,4.8-10.7,10.7V160c0,5.9,4.8,10.7,10.7,10.7S320,165.9,320,160v-10.7
			C320,143.4,315.2,138.7,309.3,138.7z"/>
	</g>
</g>
<g>
	<g>
		<path class="drag" d="M350,185.5l-33.1-33.1c-13-13-34.1-13-47.1,0c-3.9,3.9-6.6,8.5-8.2,13.4c-11.6-4.1-25.5-1-34.5,7.9
			c-4.9,4.9-7.9,10.9-9.1,17.2c-10.2-1.4-20.8,2-28.2,9.4c-7.1,7.1-10.3,16.6-9.7,25.9c-7.2,1-13.8,4.2-19,9.5
			c-6.3,6.3-9.7,14.7-9.7,23.6c0,8.9,3.5,17.3,9.7,23.6l9.6,9.6v38.3c0,29.4,23.9,53.3,53.3,53.3h43.7
			c64.1,0,116.3-52.2,116.3-116.3C384,236.7,371.9,207.5,350,185.5z M267.7,362.7H224c-17.6,0-32-14.4-32-32v-16.9l24.5,24.5
			c4.2,4.2,10.9,4.2,15.1,0c2.1-2.1,3.1-4.8,3.1-7.6s-1-5.5-3.1-7.6l-55.4-55.4c-2.3-2.2-3.5-5.3-3.5-8.4s1.2-6.2,3.5-8.4
			c4.5-4.5,12.4-4.5,16.9,0l23.4,23.4c4.2,4.2,10.9,4.2,15.1,0c2.1-2.1,3.1-4.8,3.1-7.6s-1-5.5-3.1-7.5l-26.7-26.7
			c-4.7-4.7-4.7-12.2,0-16.9c4.5-4.5,12.4-4.5,16.9,0l16,16c4.2,4.2,10.9,4.2,15.1,0c2.1-2.1,3.1-4.8,3.1-7.6s-1-5.5-3.1-7.5
			l-10.7-10.7c-4.7-4.7-4.7-12.2,0-16.9c4.5-4.5,12.4-4.5,16.9,0l10.7,10.7c4.2,4.2,10.9,4.2,15.1,0c2.1-2.1,3.1-4.8,3.1-7.6
			s-1-5.5-3.1-7.6c-2.3-2.2-3.5-5.2-3.5-8.4s1.3-6.2,3.5-8.4c4.7-4.7,12.2-4.7,16.9,0l33.1,33.1c17.9,17.9,27.8,41.8,27.8,67.1
			C362.7,320.1,320.1,362.7,267.7,362.7z"/>
	</g>
</g>
</svg>
