<svg version="1.1" class="export" xmlns="http://www.w3.org/2000/svg" xmlns:xlink="http://www.w3.org/1999/xlink" x="0px" y="0px"
	 viewBox="0 0 39.4 39.4" style="enable-background:new 0 0 39.4 39.4;" xml:space="preserve">
<style type="text/css">
	.st0{fill:#FFFFFF;}
</style>
<g>
	<g>
		<g>
			<path class="export" d="M19.7,23.4c-0.1,0-0.2,0-0.2-0.1L3.6,15.4c-0.2-0.1-0.3-0.3-0.3-0.4s0.1-0.4,0.3-0.4l12.6-6.3
				c0.2-0.1,0.5,0,0.7,0.2c0.1,0.2,0,0.5-0.2,0.7L5,15l14.7,7.4L34.4,15L22.9,9.2c-0.2-0.1-0.3-0.4-0.2-0.7c0.1-0.2,0.4-0.3,0.7-0.2
				l12.5,6.2c0.2,0.1,0.3,0.3,0.3,0.4s-0.1,0.4-0.3,0.4l-15.8,7.9C19.9,23.4,19.8,23.4,19.7,23.4z"/>
			<path class="st0" d="M19.7,39.4c-0.1,0-0.2,0-0.2-0.1L3.6,31.4c-0.2-0.1-0.3-0.4-0.2-0.7c0.1-0.2,0.4-0.3,0.7-0.2l15.6,7.8
				l15.6-7.8c0.2-0.1,0.5,0,0.7,0.2c0.1,0.2,0,0.5-0.2,0.7l-15.8,7.9C19.9,39.4,19.8,39.4,19.7,39.4z"/>
			<path class="export" d="M35.5,31.5c-0.3,0-0.5-0.2-0.5-0.5V15c0-0.3,0.2-0.5,0.5-0.5S36,14.7,36,15v16C36,31.3,35.8,31.5,35.5,31.5z
				"/>
			<path class="export" d="M19.7,39.4c-0.3,0-0.5-0.2-0.5-0.5v-16c0-0.3,0.2-0.5,0.5-0.5s0.5,0.2,0.5,0.5v16
				C20.2,39.2,20,39.4,19.7,39.4z"/>
			<path class="export" d="M3.9,31.5c-0.3,0-0.5-0.2-0.5-0.5V15c0-0.3,0.2-0.5,0.5-0.5s0.5,0.2,0.5,0.5v16C4.4,31.3,4.1,31.5,3.9,31.5z
				"/>
		</g>
	</g>
	<g>
		<path class="export" d="M19.7,13.2c-0.3,0-0.5-0.2-0.5-0.5V0.5c0-0.3,0.2-0.5,0.5-0.5s0.5,0.2,0.5,0.5v12.2
			C20.2,13,20,13.2,19.7,13.2z"/>
		<path class="export" d="M24.6,5.8c-0.1,0-0.3,0-0.4-0.1l-4.5-4.5l-4.5,4.5c-0.2,0.2-0.5,0.2-0.7,0s-0.2-0.5,0-0.7l4.9-4.8
			C19.4,0.1,19.6,0,19.7,0l0,0c0.1,0,0.3,0.1,0.4,0.1L24.9,5c0.2,0.2,0.2,0.5,0,0.7C24.8,5.8,24.7,5.8,24.6,5.8z"/>
	</g>
</g>
</svg>
