<svg version="1.1" class="history" xmlns="http://www.w3.org/2000/svg" xmlns:xlink="http://www.w3.org/1999/xlink" x="0px" y="0px"
	 viewBox="0 0 294.8 294.8" style="enable-background:new 0 0 294.8 294.8;" xml:space="preserve">

<g>
	<path class="history" d="M258.6,0H36.2C16.3,0,0,16.3,0,36.2v222.4c0,20,16.3,36.2,36.2,36.2c3.3,0,6-2.7,6-6s-2.7-6-6-6
		C22.9,282.8,12,272,12,258.6V36.2C12,22.9,22.9,12,36.2,12h222.4c13.4,0,24.2,10.9,24.2,24.2v222.4c0,13.4-10.9,24.2-24.2,24.2
		H100.4c-3.3,0-6,2.7-6,6s2.7,6,6,6h158.2c20,0,36.2-16.3,36.2-36.2V36.2C294.8,16.3,278.6,0,258.6,0z"/>
	<path class="history" d="M147.4,52c-3.3,0-6,2.7-6,6v89.4c0,1.6,0.6,3.1,1.8,4.2l100,100c1.2,1.2,2.7,1.8,4.2,1.8s3.1-0.6,4.2-1.8
		c2.3-2.3,2.3-6.1,0-8.5l-98.2-98.2V58C153.4,54.7,150.7,52,147.4,52z"/>
</g>
<rect x="35.5" y="282.8" class="st0" width="64.9" height="12"/>
</svg>
