<svg version="1.1" class="play" xmlns="http://www.w3.org/2000/svg" xmlns:xlink="http://www.w3.org/1999/xlink" x="0px" y="0px"
	 viewBox="0 0 512 512" style="enable-background:new 0 0 512 512;" xml:space="preserve">

<path class="play" d="M256,448c105.9,0,192-86.1,192-192S361.9,64,256,64S64,150.1,64,256S150.1,448,256,448z M256,96
	c88.2,0,160,71.8,160,160s-71.8,160-160,160S96,344.2,96,256S167.8,96,256,96z"/>
<path class="play" d="M218.1,332.8c4.5,2.2,9.3,3.2,14,3.2c7,0,13.9-2.3,19.4-6.8L316,281c7.6-6.1,12-15.2,12-25
	c0-9.8-4.4-18.9-12-25c-0.1-0.1-0.3-0.2-0.4-0.3L252,183c-9.7-7.8-22.6-9.2-33.8-3.8c-11.2,5.4-18.1,16.4-18.1,28.8V304
	C200,316.4,206.9,327.4,218.1,332.8L218.1,332.8z M232.4,208.3L296,256l-64,48L232.4,208.3z"/>
</svg>
