<svg version="1.1" class="rgb" xmlns="http://www.w3.org/2000/svg" xmlns:xlink="http://www.w3.org/1999/xlink" x="0px" y="0px"
	 viewBox="0 0 480 480" style="enable-background:new 0 0 480 480;" xml:space="preserve">

<path class="rgb" d="M448,0.2c-8.5,0-16.6,3.4-22.6,9.4l-45.2,45.2l-8.5-8.5c-7.9-7.6-20.4-7.6-28.3,0c-7.8,7.8-7.8,20.5,0,28.3
	l8.5,8.5l-29.6,29.6c-40.9-13.2-85.8-3.9-118.2,24.4c-37.3-32.5-90.5-39.6-134.9-17.9S-2.5,187,0.2,236.5s34.7,92.4,81.2,109.2
	c-0.3,3.6-0.6,7.3-0.6,11.1C80.9,424.8,136,480,204.1,480c68.1,0,123.3-55.2,123.3-123.3c0-3.7-0.2-7.4-0.6-11.1
	c38.4-13.8,67.4-45.8,77.4-85.3c10.1-39.5-0.2-81.5-27.3-111.9l20.2-20.2l8.5,8.5c7.8,7.8,20.5,7.8,28.3,0c7.8-7.8,7.8-20.5,0-28.3
	l-8.5-8.5l45.2-45.2c9.1-9.1,11.9-22.9,6.9-34.9C472.6,8,461,0.2,448,0.2z M326.5,131.1c10.1,4.3,19.5,10.2,27.9,17.3L297,205.8
	l-15.2,5.1c-1.2,0.4-2.2,1.1-3.1,1.9l-17,17c-2,2.1-5,2.9-7.8,2.2c-2.8-0.7-5-2.9-5.7-5.7c-0.7-2.8,0.1-5.8,2.2-7.8l17-17
	c0.9-0.9,1.5-1.9,1.9-3.1l5.1-15.2L326.5,131.1z M179.9,252.3c15.9-3.8,32.5-3.8,48.4,0c-3.8,17.8-12.2,34.4-24.2,48.1
	C192.1,286.7,183.7,270.2,179.9,252.3z M192.7,311.7c-25.7,22.1-60.5,30.5-93.5,22.7c7.6-35,32.1-64,65.4-77.3
	C169.2,277.4,178.9,296.2,192.7,311.7L192.7,311.7z M243.5,257.1c33.3,13.2,57.8,42.2,65.4,77.3c-33,7.8-67.7-0.6-93.5-22.7
	C229.3,296.2,239,277.4,243.5,257.1L243.5,257.1z M284.7,122.8c8.3,0,16.5,1,24.5,2.9l-47.5,47.5c-0.9,0.9-1.5,1.9-1.9,3.1
	l-5.1,15.2l-11.2,11.2c-4.6-20.2-14.3-39-28.1-54.5C234.8,131.8,259.4,122.7,284.7,122.8L284.7,122.8z M230.7,230
	c0,2.2-0.2,4.3-0.3,6.4c-17.3-3.8-35.2-3.8-52.5,0c-0.1-2.1-0.3-4.2-0.3-6.4c0-25.9,9.4-51,26.6-70.4C221.2,179,230.7,204,230.7,230
	z M16.2,230c0-41.8,24.2-79.8,62.2-97.3c37.9-17.5,82.6-11.4,114.4,15.6c-20.1,22.5-31.2,51.6-31.2,81.7c0,3.7,0.2,7.4,0.6,11.1
	c-39.4,14.4-68.8,47.7-78.1,88.6C43.1,313.4,16.2,273.9,16.2,230z M204.1,464c-59.2-0.1-107.2-48-107.3-107.3c0-2.2,0.2-4.3,0.3-6.4
	c38,8.4,77.7-1.8,106.9-27.4c29.3,25.6,69,35.8,106.9,27.4c0.1,2.1,0.3,4.2,0.3,6.4C311.3,416,263.3,463.9,204.1,464z M392,230
	c-0.1,44-26.9,83.4-67.8,99.6c-8-35.3-31.1-65.3-63.2-82.1c4.6-0.9,8.7-3.2,12-6.5l15.6-15.6l15.2-5.1c1.2-0.4,2.2-1.1,3.1-1.9
	l58.7-58.7C382.7,179.2,392,204.1,392,230z M365.6,137.2c-8.2-7.2-17.4-13.2-27.2-18l24.8-24.8l22.6,22.6L365.6,137.2z M422.6,125.5
	c-0.7,0.8-1.8,1.2-2.8,1.2s-2.1-0.4-2.8-1.2l-14.1-14.2l-33.9-33.9l-14.1-14.1c-1.1-1.1-1.5-2.9-0.9-4.4c0.6-1.5,2.1-2.5,3.7-2.5
	c1.1,0,2.1,0.4,2.8,1.2l14.1,14.1l48.1,48.1C424.1,121.4,424.1,123.9,422.6,125.5L422.6,125.5z M459.4,43.5l-45.2,45.2l-11.3-11.3
	l-11.3-11.3l45.2-45.2c6.3-6,16.3-6,22.6,0C465.6,27.1,465.6,37.3,459.4,43.5z"/>
</svg>
