
<svg version="1.1" class="rotate" xmlns="http://www.w3.org/2000/svg" xmlns:xlink="http://www.w3.org/1999/xlink" x="0px" y="0px"
	 viewBox="0 0 64 64" style="enable-background:new 0 0 64 64;" xml:space="preserve">

<g>
	<g>
		<path class="rotate" d="M33,2c7.7,0,15,3,20.5,8.5c10.1,10.1,11.3,26.4,2.7,37.8L52,52.6V44h-2v11l1,1h11v-2h-8.6l4.3-4.3l0.1-0.1
			c9.2-12.2,8-29.7-2.9-40.5C49.1,3.2,41.3,0,33,0V2z"/>
		<path class="rotate" d="M7.8,15.7l4.2-4.2V20h2V9l-1-1H2v2h8.6l-4.3,4.3l-0.1,0.1c-9.2,12.2-8,29.7,2.9,40.5C14.9,60.8,22.7,64,31,64
			v-2c-7.7,0-15-3-20.5-8.5C0.4,43.4-0.8,27.1,7.8,15.7z"/>
	</g>
</g>
<path class="rotate" d="M42,23.6c-0.3,0-0.6-0.3-0.6-0.6c0-1.6-1.3-3-3-3c-0.3,0-0.6-0.3-0.6-0.6c0-0.3,0.3-0.6,0.6-0.6
	c2.3,0,4.2,1.9,4.2,4.2C42.6,23.4,42.3,23.6,42,23.6z"/>
<path class="rotate" d="M46.8,23.6c-0.3,0-0.6-0.3-0.6-0.6c0-4.3-3.5-7.8-7.8-7.8c-0.3,0-0.6-0.3-0.6-0.6c0-0.3,0.3-0.6,0.6-0.6
	c4.9,0,9,4,9,9C47.4,23.4,47.1,23.6,46.8,23.6z"/>
<path class="rotate" d="M44.4,23.6c-0.3,0-0.6-0.3-0.6-0.6c0-3-2.4-5.4-5.4-5.4c-0.3,0-0.6-0.3-0.6-0.6c0-0.3,0.3-0.6,0.6-0.6
	c3.6,0,6.6,2.9,6.6,6.6C45,23.4,44.7,23.6,44.4,23.6z"/>
<path class="rotate" d="M36,49.9H22.9c-1.6,0-3-1.3-3-3V24.8c0-1.6,1.3-3,3-3H36c1.6,0,3,1.3,3,3v22.1C39,48.6,37.7,49.9,36,49.9z
	 M22.9,23c-1,0-1.8,0.8-1.8,1.8v22.1c0,1,0.8,1.8,1.8,1.8H36c1,0,1.8-0.8,1.8-1.8V24.8c0-1-0.8-1.8-1.8-1.8H22.9z"/>
<path class="rotate" d="M29.5,34.4c-1.7,0-3-1.3-3-3s1.3-3,3-3s3,1.3,3,3C32.4,33.1,31.1,34.4,29.5,34.4z M29.5,29.6
	c-1,0-1.8,0.8-1.8,1.8c0,1,0.8,1.8,1.8,1.8c1,0,1.8-0.8,1.8-1.8C31.3,30.4,30.5,29.6,29.5,29.6z"/>
<path class="rotate" d="M30.7,27.8c-0.2,0-0.3-0.1-0.4-0.2l-0.8-0.8l-0.8,0.8c-0.2,0.2-0.6,0.2-0.8,0c-0.2-0.2-0.2-0.6,0-0.8l1.2-1.2
	c0.2-0.2,0.6-0.2,0.8,0l1.2,1.2c0.2,0.2,0.2,0.4,0.1,0.7C31.1,27.7,30.9,27.8,30.7,27.8z"/>
<path class="rotate" d="M33.6,33.2c-0.2,0-0.5-0.1-0.6-0.4c-0.1-0.2,0-0.5,0.1-0.7l0.8-0.8l-0.8-0.8c-0.2-0.2-0.2-0.6,0-0.8
	c0.2-0.2,0.6-0.2,0.8,0l1.2,1.2c0.2,0.2,0.2,0.6,0,0.8L34.1,33C34,33.1,33.8,33.2,33.6,33.2z"/>
<path class="rotate" d="M29.5,37.4c-0.2,0-0.3-0.1-0.4-0.2L27.8,36c-0.2-0.2-0.2-0.6,0-0.8c0.2-0.2,0.6-0.2,0.8,0l0.8,0.8l0.8-0.8
	c0.2-0.2,0.6-0.2,0.8,0s0.2,0.6,0,0.8l-1.2,1.2C29.8,37.3,29.6,37.4,29.5,37.4z"/>
<path class="rotate" d="M25.3,33.2c-0.2,0-0.3-0.1-0.4-0.2l-1.2-1.2c-0.2-0.2-0.2-0.6,0-0.8l1.2-1.2c0.2-0.2,0.6-0.2,0.8,0
	c0.2,0.2,0.2,0.6,0,0.8l-0.8,0.8l0.8,0.8c0.2,0.2,0.2,0.4,0.1,0.7C25.7,33,25.5,33.2,25.3,33.2z"/>
<path class="rotate" d="M24.7,42.8c-1,0-1.8-0.8-1.8-1.8c0-1,0.8-1.8,1.8-1.8c1,0,1.8,0.8,1.8,1.8C26.5,42,25.7,42.8,24.7,42.8z
	 M24.7,40.4c-0.3,0-0.6,0.3-0.6,0.6c0,0.3,0.3,0.6,0.6,0.6c0.3,0,0.6-0.3,0.6-0.6C25.3,40.6,25,40.4,24.7,40.4z"/>
<path class="rotate" d="M29.5,42.8c-1,0-1.8-0.8-1.8-1.8c0-1,0.8-1.8,1.8-1.8c1,0,1.8,0.8,1.8,1.8C31.3,42,30.5,42.8,29.5,42.8z
	 M29.5,40.4c-0.3,0-0.6,0.3-0.6,0.6c0,0.3,0.3,0.6,0.6,0.6c0.3,0,0.6-0.3,0.6-0.6C30.1,40.6,29.8,40.4,29.5,40.4z"/>
<path class="rotate" d="M34.2,42.8c-1,0-1.8-0.8-1.8-1.8c0-1,0.8-1.8,1.8-1.8S36,40,36,41C36,42,35.2,42.8,34.2,42.8z M34.2,40.4
	c-0.3,0-0.6,0.3-0.6,0.6c0,0.3,0.3,0.6,0.6,0.6s0.6-0.3,0.6-0.6C34.8,40.6,34.6,40.4,34.2,40.4z"/>
<path class="rotate" d="M24.7,47.5c-1,0-1.8-0.8-1.8-1.8c0-1,0.8-1.8,1.8-1.8c1,0,1.8,0.8,1.8,1.8C26.5,46.7,25.7,47.5,24.7,47.5z
	 M24.7,45.1c-0.3,0-0.6,0.3-0.6,0.6c0,0.3,0.3,0.6,0.6,0.6c0.3,0,0.6-0.3,0.6-0.6C25.3,45.4,25,45.1,24.7,45.1z"/>
<path class="rotate" d="M29.5,47.5c-1,0-1.8-0.8-1.8-1.8c0-1,0.8-1.8,1.8-1.8c1,0,1.8,0.8,1.8,1.8C31.3,46.7,30.5,47.5,29.5,47.5z
	 M29.5,45.1c-0.3,0-0.6,0.3-0.6,0.6c0,0.3,0.3,0.6,0.6,0.6c0.3,0,0.6-0.3,0.6-0.6C30.1,45.4,29.8,45.1,29.5,45.1z"/>
<path class="rotate" d="M34.2,47.5c-1,0-1.8-0.8-1.8-1.8c0-1,0.8-1.8,1.8-1.8s1.8,0.8,1.8,1.8C36,46.7,35.2,47.5,34.2,47.5z M34.2,45.1
	c-0.3,0-0.6,0.3-0.6,0.6c0,0.3,0.3,0.6,0.6,0.6s0.6-0.3,0.6-0.6C34.8,45.4,34.6,45.1,34.2,45.1z"/>
</svg>
