<svg xmlns="http://www.w3.org/2000/svg" x="0px" y="0px"
	 width="32" height="32"
	 viewBox="0 0 226 226"
	 style=" fill:#000000;"><g transform="translate(5.198,5.198) scale(0.954,0.954)"><g fill="none" fill-rule="nonzero" stroke="none" stroke-width="none" stroke-linecap="butt" stroke-linejoin="none" stroke-miterlimit="10" stroke-dasharray="" stroke-dashoffset="0" font-family="none" font-weight="none" font-size="none" text-anchor="none" style="mix-blend-mode: normal"><g fill="#000000" stroke="#ffffff" stroke-width="11" stroke-linejoin="round"><path d="M134.1875,42.375c23.31177,0 42.375,19.06323 42.375,42.375c0,23.31177 -19.06323,42.375 -42.375,42.375h-42.375v14.125h35.3125v14.125h-35.3125v28.25h-14.125v-28.25h-14.125v-14.125h14.125v-14.125h-14.125v-14.125h14.125v-70.625zM91.8125,113h42.375c15.66992,0 28.25,-12.58008 28.25,-28.25c0,-15.66992 -12.58008,-28.25 -28.25,-28.25h-42.375z"></path></g><path d="M0,226v-226h226v226z" fill="none" stroke="none" stroke-width="1" stroke-linejoin="miter"></path><g fill="#ffffff" stroke="none" stroke-width="1" stroke-linejoin="miter"><path d="M77.6875,42.375v70.625h-14.125v14.125h14.125v14.125h-14.125v14.125h14.125v28.25h14.125v-28.25h35.3125v-14.125h-35.3125v-14.125h42.375c23.31177,0 42.375,-19.06323 42.375,-42.375c0,-23.31177 -19.06323,-42.375 -42.375,-42.375zM91.8125,56.5h42.375c15.66992,0 28.25,12.58008 28.25,28.25c0,15.66992 -12.58008,28.25 -28.25,28.25h-42.375z"></path></g><path d="" fill="none" stroke="none" stroke-width="1" stroke-linejoin="miter" fill-opacity="0"></path></g></g></svg>