<svg version="1.1" class="spotlight" xmlns="http://www.w3.org/2000/svg" xmlns:xlink="http://www.w3.org/1999/xlink" x="0px" y="0px"
	 viewBox="0 0 60 60" style="enable-background:new 0 0 60 60;" xml:space="preserve">

<path class="spotlight" d="M20.2,33.7L1.3,50.2c-0.1,0.1-0.2,0.3-0.3,0.4l-0.1,0.4C0.3,51.8,0,52.6,0,53.5c0,0.1,0,0.2,0,0.3
	c0,0.2,0,0.5,0.1,0.7C1.1,57.7,6.5,60,13.5,60c6.9,0,12.3-2.3,13.3-5.4c0,0,0,0,0,0l3.2-5.1l3.2,5.1c0,0,0,0,0,0
	c1,3.2,6.4,5.4,13.3,5.4c7.7,0,13.5-2.8,13.5-6.5c0-0.9-0.3-1.7-0.9-2.4l-0.1-0.4c-0.1-0.2-0.2-0.3-0.3-0.4L39.8,33.7l20-32.2
	c0.3-0.4,0.2-1-0.2-1.3C59.5,0.1,59.2,0,59,0c-0.2,0-0.5,0.1-0.7,0.2L30,25.1L1.7,0.2C1.5,0.1,1.2,0,1,0C0.8,0,0.5,0.1,0.4,0.2
	C0,0.6-0.1,1.1,0.2,1.5L20.2,33.7z M13.5,58C7,58,2.4,55.8,2,53.8c0,0,0-0.1,0-0.1c0,0,0,0,0,0c0-0.1,0-0.1,0-0.2
	c0-0.4,0.2-0.8,0.5-1.2c0,0,0.1,0,0.1-0.1c0.7-0.8,2-1.6,3.9-2.2c0,0,0,0,0,0c0.2-0.1,0.4-0.1,0.7-0.2c0.1,0,0.2,0,0.3-0.1
	c0.2,0,0.3-0.1,0.5-0.1c0.3-0.1,0.6-0.1,0.9-0.2c0.1,0,0.1,0,0.2,0c0.3,0,0.5-0.1,0.8-0.1c0.1,0,0.2,0,0.3,0c0.3,0,0.5-0.1,0.8-0.1
	c0.1,0,0.2,0,0.3,0c0.3,0,0.6,0,0.8-0.1c0.1,0,0.2,0,0.3,0c0.4,0,0.8,0,1.2,0c6.8,0,11.5,2.4,11.5,4.5C25,55.6,20.3,58,13.5,58z
	 M46.5,58C39.7,58,35,55.6,35,53.5c0-2.1,4.7-4.5,11.5-4.5c0.4,0,0.8,0,1.2,0c0.1,0,0.2,0,0.3,0c0.3,0,0.6,0,0.8,0.1
	c0.1,0,0.2,0,0.3,0c0.3,0,0.5,0.1,0.8,0.1c0.1,0,0.2,0,0.3,0c0.3,0,0.6,0.1,0.8,0.1c0.1,0,0.1,0,0.2,0c0.3,0.1,0.6,0.1,0.9,0.2
	c0.2,0,0.4,0.1,0.5,0.1c0.1,0,0.2,0,0.3,0.1c0.2,0.1,0.5,0.1,0.7,0.2c0,0,0,0,0,0c1.9,0.6,3.2,1.4,3.9,2.2c0,0,0.1,0,0.1,0.1
	c0.3,0.4,0.5,0.8,0.5,1.2C58,55.6,53.3,58,46.5,58z M52.7,47.7c-1.3-0.3-2.8-0.5-4.4-0.6c-0.1,0-0.1,0-0.2,0c-0.5,0-1.1,0-1.6,0
	c-0.4,0-0.9,0-1.3,0c-0.1,0-0.3,0-0.4,0c-0.3,0-0.6,0-0.9,0.1c-0.1,0-0.3,0-0.4,0c-0.3,0-0.6,0.1-0.8,0.1c-0.1,0-0.3,0-0.4,0.1
	c-0.3,0-0.7,0.1-1,0.2c-0.1,0-0.1,0-0.2,0c-0.4,0.1-0.7,0.2-1.1,0.2c-0.1,0-0.2,0.1-0.3,0.1C39.5,47.9,39.2,48,39,48
	c-0.1,0-0.2,0.1-0.4,0.1c-0.2,0.1-0.4,0.1-0.6,0.2c-0.1,0-0.2,0.1-0.3,0.1c-0.2,0.1-0.5,0.2-0.7,0.3c-0.1,0-0.1,0.1-0.2,0.1
	c-0.3,0.1-0.5,0.3-0.8,0.4c-0.1,0-0.1,0.1-0.2,0.1c-0.2,0.1-0.4,0.2-0.5,0.3c-0.1,0.1-0.2,0.1-0.2,0.2c-0.1,0.1-0.3,0.2-0.4,0.3
	c-0.1,0.1-0.1,0.1-0.2,0.2c-0.1,0.1-0.3,0.2-0.4,0.4c0,0.1-0.1,0.1-0.1,0.2c-0.1,0.2-0.3,0.3-0.4,0.5l-2.4-3.9l3.4-5.5l4.2-6.7
	L52.7,47.7z M37.7,33.4L37.7,33.4L29.2,47l0,0l-2.8,4.4c-0.1-0.2-0.2-0.4-0.4-0.5c0-0.1-0.1-0.1-0.1-0.2c-0.1-0.1-0.2-0.3-0.4-0.4
	c-0.1-0.1-0.1-0.1-0.2-0.2c-0.1-0.1-0.3-0.2-0.4-0.3c-0.1-0.1-0.2-0.1-0.2-0.2c-0.2-0.1-0.3-0.2-0.5-0.3c-0.1,0-0.1-0.1-0.2-0.1
	c-0.2-0.1-0.5-0.3-0.8-0.4c-0.1,0-0.1-0.1-0.2-0.1c-0.2-0.1-0.4-0.2-0.7-0.3c-0.1,0-0.2-0.1-0.3-0.1c-0.2-0.1-0.4-0.2-0.6-0.2
	c-0.1,0-0.2-0.1-0.4-0.1c-0.2-0.1-0.5-0.1-0.7-0.2c-0.1,0-0.2-0.1-0.3-0.1c-0.4-0.1-0.7-0.2-1.1-0.2c-0.1,0-0.1,0-0.2,0
	c-0.3-0.1-0.6-0.1-1-0.2c-0.1,0-0.3,0-0.4-0.1c-0.3,0-0.5-0.1-0.8-0.1c-0.1,0-0.3,0-0.4,0c-0.3,0-0.6,0-0.9-0.1c-0.1,0-0.3,0-0.4,0
	c-0.4,0-0.9,0-1.3,0c-0.5,0-1.1,0-1.6,0c-0.1,0-0.1,0-0.2,0c-1.6,0.1-3.1,0.3-4.4,0.6l14.9-13c0,0,0,0,0,0l8.5-7.5l0,0l23.9-21
	L37.7,33.4z M28.5,26.4l-6.8,5.9L5.4,6.2L28.5,26.4z"/>
</svg>
