<svg version="1.1"  xmlns="http://www.w3.org/2000/svg" xmlns:xlink="http://www.w3.org/1999/xlink" x="0px" y="0px"
	 viewBox="0 0 512 512" style="enable-background:new 0 0 512 512;" xml:space="preserve">
<style type="text/css">
	.st0{fill:#FFFFFF;}
</style>
<g>
	<path class="st0" d="M104.3,340.3c50.5,60.4,111.3,107.9,180.7,141.5c26.4,12.5,61.7,27.4,101.1,29.9c2.4,0.1,4.8,0.2,7.2,0.2
		c26.4,0,47.6-9.1,64.9-27.9c0.1-0.1,0.3-0.3,0.4-0.5c6.2-7.4,13.2-14.1,20.5-21.2c5-4.8,10.1-9.8,15-14.9
		c22.6-23.6,22.6-53.5-0.2-76.3l-63.8-63.8c-10.8-11.2-23.8-17.2-37.3-17.2c-13.6,0-26.6,5.9-37.8,17.1l-38,38
		c-3.5-2-7.1-3.8-10.5-5.5c-4.2-2.1-8.2-4.1-11.7-6.4c-34.6-22-66-50.6-96-87.4c-15.2-19.2-25.4-35.3-32.5-51.8
		c10-9,19.3-18.5,28.3-27.7c3.2-3.3,6.5-6.6,9.8-9.9c11.5-11.5,17.6-24.7,17.6-38.2s-6-26.7-17.6-38.2l-31.6-31.6
		c-3.7-3.7-7.2-7.3-10.8-11c-7-7.2-14.3-14.6-21.5-21.3C129.6,5.6,116.7,0,103.2,0C89.7,0,76.7,5.6,65.4,16.4L25.7,56.1
		C11.3,70.6,3.1,88.1,1.4,108.3c-2,25.4,2.7,52.3,14.7,84.9C34.7,243.6,62.7,290.4,104.3,340.3z M27.3,110.5
		c1.3-14.1,6.7-25.9,16.9-36.1L83.6,35c6.2-5.9,12.9-9,19.5-9c6.5,0,13,3.1,19.1,9.2c7.1,6.6,13.8,13.5,21,20.8
		c3.6,3.7,7.3,7.4,11,11.2l31.6,31.6c6.6,6.6,10,13.3,10,19.8s-3.4,13.3-10,19.8c-3.3,3.3-6.6,6.7-9.9,10
		c-9.9,10-19.1,19.4-29.3,28.4c-0.2,0.2-0.3,0.3-0.5,0.5c-8.8,8.8-7.4,17.2-5.3,23.6c0.1,0.3,0.2,0.5,0.3,0.8
		c8.2,19.6,19.5,38.3,37.2,60.6c31.8,39.3,65.4,69.7,102.3,93.1c4.6,3,9.4,5.3,14,7.6c4.2,2.1,8.2,4.1,11.7,6.4
		c0.4,0.2,0.7,0.4,1.2,0.6c3.5,1.8,6.9,2.7,10.3,2.7c8.5,0,14-5.4,15.8-7.2l39.7-39.7c6.2-6.2,12.8-9.4,19.4-9.4
		c8.1,0,14.6,5,18.8,9.4l64,63.9c12.7,12.7,12.6,26.5-0.3,40c-4.5,4.8-9.1,9.3-14.1,14.1c-7.4,7.2-15.2,14.6-22.2,23
		c-12.2,13.2-26.7,19.3-45.5,19.3c-1.8,0-3.7-0.1-5.5-0.2c-34.8-2.2-67.2-15.8-91.5-27.4c-66-31.9-123.9-77.2-172-134.7
		c-39.6-47.6-66.2-92-83.8-139.5C29.7,155.3,25.6,131.9,27.3,110.5z"/>
</g>
</svg>
