<svg version="1.1" class="ventilator" xmlns="http://www.w3.org/2000/svg" xmlns:xlink="http://www.w3.org/1999/xlink" x="0px" y="0px"
	 viewBox="0 0 512 512" style="enable-background:new 0 0 512 512;" xml:space="preserve">
<g>
	<g>
		<path class="ventilator" d="M492.9,0H19.1c-5.5,0-10,4.5-10,10v492c0,5.5,4.5,10,10,10h473.8c5.5,0,10-4.5,10-10V10
			C502.9,4.5,498.4,0,492.9,0z M482.9,492H29.1V20h453.8V492z"/>
	</g>
</g>
<g>
	<g>
		<path class="ventilator" d="M256,35.8C134.6,35.8,35.9,134.6,35.9,256c0,121.4,98.7,220.2,220.1,220.2c121.4,0,220.1-98.8,220.1-220.2
			C476.1,134.6,377.4,35.8,256,35.8z M256,456.2c-110.3,0-200.1-89.8-200.1-200.2c0-110.4,89.8-200.2,200.1-200.2
			c110.3,0,200.1,89.8,200.1,200.2C456.1,366.4,366.3,456.2,256,456.2z"/>
	</g>
</g>
<g>
	<g>
		<g>
			<path class="ventilator" d="M326.8,113.5c5.5,0,10-4.5,10-10s-4.5-10-10-10h0c-5.5,0-10,4.5-10,10S321.2,113.5,326.8,113.5z"/>
			<path class="ventilator" d="M421.8,191.1c-2-5.1-7.8-7.7-13-5.7c-5.1,2-7.7,7.8-5.7,13c7.2,18.3,10.8,37.7,10.8,57.6
				c0,87.2-70.9,158.1-158,158.1c-87.1,0-158-70.9-158-158.1c0-87.2,70.9-158.1,158-158.1c10.8,0,21.5,1.1,32,3.2
				c5.4,1.1,10.7-2.4,11.8-7.8c1.1-5.4-2.4-10.7-7.8-11.8c-11.8-2.4-23.9-3.6-36-3.6c-98.2,0-178,79.9-178,178.1
				c0,98.2,79.9,178.1,178,178.1c98.2,0,178-79.9,178-178.1C434,233.6,429.9,211.8,421.8,191.1z"/>
		</g>
	</g>
</g>
<g>
	<g>
		<path class="ventilator" d="M348,198.4c-11.4,0-24.6,2.3-37.4,6.1c7.9-13.7,13.1-28,13.1-40.5c0-13.1-6-31.2-34.8-43.1
			c-17.9-7.4-37.5-9.4-46.3-9.4c-20.2,0-44.3,9.1-44.3,52.5c0,11.4,2.3,24.6,6.1,37.4c-13.7-7.9-28-13.1-40.5-13.1
			c-13.1,0-31.2,6-43.1,34.6c-7,16.7-9.4,35.5-9.4,46.5c0,20.2,9.1,44.3,52.5,44.3c11.4,0,24.6-2.3,37.4-6.1
			c-7.9,13.7-13.1,28-13.1,40.5c0,13.1,6,31.2,34.8,43.1c17.9,7.4,37.5,9.4,46.3,9.4c20.2,0,44.3-9.1,44.3-52.5
			c0-11.3-2.3-24.6-6.2-37.5c13.7,8,28.1,13.2,40.6,13.2c13.1,0,31.2-6,43.1-34.8c7.4-17.9,9.4-37.5,9.4-46.3
			C400.5,222.5,391.4,198.4,348,198.4z M242.7,131.4c15.7,0,61.1,8,61.1,32.5c0,16.3-14.6,40.1-30.3,56.9c-1.2,0.8-2.3,1.5-3.4,2.3
			c-4.3-1.9-9.1-2.9-14.1-2.9c-7.1,0-13.8,2.1-19.4,5.7c-0.1-0.1-0.2-0.2-0.3-0.3c-10-16.4-17.9-42.8-17.9-61.7
			C218.4,133.9,230.9,131.4,242.7,131.4z M271.8,256c0,8.7-7.1,15.8-15.8,15.8c-8.7,0-15.8-7.1-15.8-15.8c0-8.7,7.1-15.8,15.8-15.8
			C264.7,240.2,271.8,247.3,271.8,256z M164,293.6c-30,0-32.5-12.5-32.5-24.3c0-16.3,7.7-61.1,32.5-61.1c16.2,0,40.1,14.6,56.9,30.3
			c0.8,1.2,1.5,2.3,2.3,3.4c-1.9,4.3-2.9,9.1-2.9,14.1c0,7.1,2.1,13.8,5.7,19.4c-0.1,0.1-0.2,0.2-0.3,0.3
			C209.2,285.6,182.9,293.6,164,293.6z M269.3,380.6c-15.7,0-61.1-8-61.1-32.5c0-16.3,14.6-40.1,30.3-56.9c1.2-0.7,2.3-1.5,3.4-2.3
			c4.3,1.9,9.1,2.9,14.1,2.9c7.1,0,13.7-2.1,19.3-5.6c10.2,16.6,18.3,43.2,18.3,61.9C293.6,378.1,281.1,380.6,269.3,380.6z
			 M348,303.8c-16.5,0-40.8-15-57.6-31c-0.6-0.8-1.1-1.7-1.7-2.4c1.9-4.4,3-9.3,3-14.4c0-7.1-2.1-13.8-5.7-19.4
			c0.1-0.1,0.2-0.2,0.3-0.3c16.4-10,42.8-17.9,61.6-17.9c30,0,32.5,12.5,32.5,24.3C380.5,258.3,372.5,303.8,348,303.8z"/>
	</g>
</g>
<g>
	<g>
		<path class="ventilator" d="M438,29.7c-16.8,0-30.4,13.6-30.4,30.4s13.6,30.4,30.4,30.4c16.8,0,30.4-13.6,30.4-30.4S454.7,29.7,438,29.7z
			 M438,70.5c-5.7,0-10.4-4.7-10.4-10.4s4.7-10.4,10.4-10.4c5.7,0,10.4,4.7,10.4,10.4S443.7,70.5,438,70.5z"/>
	</g>
</g>
<g>
	<g>
		<path class="ventilator" d="M74,29.7c-16.8,0-30.4,13.6-30.4,30.4S57.3,90.5,74,90.5c16.8,0,30.4-13.6,30.4-30.4S90.8,29.7,74,29.7z
			 M74,70.5c-5.7,0-10.4-4.7-10.4-10.4S68.3,49.7,74,49.7c5.7,0,10.4,4.7,10.4,10.4S79.7,70.5,74,70.5z"/>
	</g>
</g>
<g>
	<g>
		<path class="ventilator" d="M438,421.5c-16.8,0-30.4,13.6-30.4,30.4s13.6,30.4,30.4,30.4c16.8,0,30.4-13.6,30.4-30.4
			S454.7,421.5,438,421.5z M438,462.3c-5.7,0-10.4-4.7-10.4-10.4s4.7-10.4,10.4-10.4c5.7,0,10.4,4.7,10.4,10.4
			C448.4,457.6,443.7,462.3,438,462.3z"/>
	</g>
</g>
<g>
	<g>
		<path class="ventilator" d="M74,421.5c-16.8,0-30.4,13.6-30.4,30.4s13.6,30.4,30.4,30.4c16.8,0,30.4-13.6,30.4-30.4S90.8,421.5,74,421.5z
			 M74,462.3c-5.7,0-10.4-4.7-10.4-10.4s4.7-10.4,10.4-10.4c5.7,0,10.4,4.7,10.4,10.4C84.4,457.6,79.7,462.3,74,462.3z"/>
	</g>
</g>
</svg>
