<svg version="1.1" class="vision" xmlns="http://www.w3.org/2000/svg" xmlns:xlink="http://www.w3.org/1999/xlink" x="0px" y="0px"
	 viewBox="0 0 412 412" style="enable-background:new 0 0 412 412;" xml:space="preserve">
<path class="vision" d="M391.8,209.5c1.5-2.1,1.5-5,0-7.1c-0.8-1.1-20.9-28.5-53.7-56.2c-43.7-37-89.1-56.6-131.2-56.6
	s-87.4,19.6-131.2,56.6C43.1,174,23,201.3,22.1,202.5c-1.5,2.1-1.5,5,0,7.1c0.8,1.1,20.9,28.5,53.7,56.2
	c43.7,37,89.1,56.6,131.2,56.6s87.4-19.6,131.2-56.6C370.9,238,391,210.7,391.8,209.5z M83.8,256.8c-18-15.3-34.5-32.3-49.2-50.8
	c14.7-18.6,87.1-104.4,172.4-104.4c49.4,0,94.3,29.1,123.2,53.6c18,15.3,34.5,32.3,49.2,50.8c-14.7,18.6-87.1,104.4-172.4,104.4
	C157.5,310.4,112.7,281.2,83.8,256.8z"/>
<path class="vision" d="M207,123.2c-45.7,0-82.8,37.1-82.8,82.8c0,45.7,37.1,82.8,82.8,82.8c45.7,0,82.8-37.1,82.8-82.8
	C289.7,160.3,252.7,123.3,207,123.2z M207,276.8c-39.1,0-70.8-31.7-70.8-70.8s31.7-70.8,70.8-70.8s70.8,31.7,70.8,70.8
	C277.7,245.1,246.1,276.7,207,276.8z"/>
<path class="vision" d="M115.4,0H6C2.7,0,0,2.7,0,6v109.4c0,3.3,2.7,6,6,6s6-2.7,6-6V12h103.4c3.3,0,6-2.7,6-6S118.7,0,115.4,0z"/>
<path class="vision" d="M412,6c0-3.3-2.7-6-6-6H296.6c-3.3,0-6,2.7-6,6s2.7,6,6,6H400v103.4c0,3.3,2.7,6,6,6s6-2.7,6-6V6z"/>
<path class="vision" d="M412,406V296.6c0-3.3-2.7-6-6-6s-6,2.7-6,6V400H296.6c-3.3,0-6,2.7-6,6s2.7,6,6,6H406
	C409.3,412,412,409.3,412,406z"/>
<path class="vision" d="M0,406c0,3.3,2.7,6,6,6h109.4c3.3,0,6-2.7,6-6s-2.7-6-6-6H12V296.6c0-3.3-2.7-6-6-6s-6,2.7-6,6V406z"/>
</svg>
